<?xml version="1.0" encoding="UTF-8" standalone="no"?>
<!DOCTYPE svg PUBLIC "-//W3C//DTD SVG 1.1//EN"
 "http://www.w3.org/Graphics/SVG/1.1/DTD/svg11.dtd">
<!-- Generated by graphviz version 15.1.0 (20260618.0150)
 -->
<!-- Title: runtime Pages: 1 -->
<svg width="375pt" height="453pt"
 viewBox="0.00 0.00 375.00 453.00" xmlns="http://www.w3.org/2000/svg" xmlns:xlink="http://www.w3.org/1999/xlink">
<g id="graph0" class="graph" transform="scale(1 1) rotate(0) translate(4 449.1)">
<title>runtime</title>
<g id="clust1" class="cluster">
<title>cluster_user</title>
<path fill="none" stroke="#3a4266" stroke-dasharray="5,2" d="M72.97,-8C72.97,-8 346.97,-8 346.97,-8 352.97,-8 358.97,-14 358.97,-20 358.97,-20 358.97,-241.91 358.97,-241.91 358.97,-247.91 352.97,-253.91 346.97,-253.91 346.97,-253.91 72.97,-253.91 72.97,-253.91 66.97,-253.91 60.97,-247.91 60.97,-241.91 60.97,-241.91 60.97,-20 60.97,-20 60.97,-14 66.97,-8 72.97,-8"/>
<text xml:space="preserve" text-anchor="start" x="86.59" y="-240.91" font-family="Times New Roman,serif" font-size="10.00" fill="#565f89">TB32 userland — each process in an isolated 2 MiB window</text>
</g>
<!-- host -->
<g id="node1" class="node">
<title>host</title>
<path fill="#0d111a" stroke="#2a3554" d="M266.81,-445.1C266.81,-445.1 43.12,-445.1 43.12,-445.1 37.12,-445.1 31.12,-439.1 31.12,-433.1 31.12,-433.1 31.12,-418.38 31.12,-418.38 31.12,-412.38 37.12,-406.38 43.12,-406.38 43.12,-406.38 266.81,-406.38 266.81,-406.38 272.81,-406.38 278.81,-412.38 278.81,-418.38 278.81,-418.38 278.81,-433.1 278.81,-433.1 278.81,-439.1 272.81,-445.1 266.81,-445.1"/>
<text xml:space="preserve" text-anchor="start" x="46.97" y="-426.29" font-family="Cascadia Code" font-weight="bold" font-size="11.00" fill="#c0caf5">Browser host</text>
<text xml:space="preserve" text-anchor="start" x="127.97" y="-426.29" font-family="Cascadia Code" font-size="11.00" fill="#c0caf5"> — JavaScript driver</text>
<text xml:space="preserve" text-anchor="start" x="47.34" y="-417.19" font-family="Cascadia Code" font-size="9.00" fill="#7681b3">keystrokes in · VT screen out · idle tick</text>
</g>
<!-- kernel -->
<g id="node2" class="node">
<title>kernel</title>
<path fill="#0d111a" stroke="#7aa2f7" d="M297.93,-359.13C297.93,-359.13 12,-359.13 12,-359.13 6,-359.13 0,-353.13 0,-347.13 0,-347.13 0,-314.41 0,-314.41 0,-308.41 6,-302.41 12,-302.41 12,-302.41 297.93,-302.41 297.93,-302.41 303.93,-302.41 309.93,-308.41 309.93,-314.41 309.93,-314.41 309.93,-347.13 309.93,-347.13 309.93,-353.13 303.93,-359.13 297.93,-359.13"/>
<text xml:space="preserve" text-anchor="start" x="57.09" y="-340.32" font-family="Cascadia Code" font-weight="bold" font-size="11.00" fill="#c0caf5">tbvm.wasm</text>
<text xml:space="preserve" text-anchor="start" x="117.84" y="-340.32" font-family="Cascadia Code" font-size="11.00" fill="#c0caf5"> — native Zig kernel</text>
<text xml:space="preserve" text-anchor="start" x="31.59" y="-331.22" font-family="Cascadia Code" font-size="9.00" fill="#7681b3">process table · round&#45;robin scheduler · signals</text>
<text xml:space="preserve" text-anchor="start" x="55.22" y="-322.22" font-family="Cascadia Code" font-size="9.00" fill="#7681b3">job control · pipes · inode filesystem</text>
<text xml:space="preserve" text-anchor="start" x="15.84" y="-313.22" font-family="Cascadia Code" font-size="9.00" fill="#7681b3">tty line discipline · char drivers · syscall dispatch</text>
</g>
<!-- host&#45;&gt;kernel -->
<g id="edge1" class="edge">
<title>host&#45;&gt;kernel</title>
<path fill="none" stroke="#565f89" d="M154.97,-397.6C154.97,-388.3 154.97,-377.74 154.97,-367.85"/>
<polygon fill="#565f89" stroke="#565f89" points="152.52,-397.41 154.97,-404.41 157.42,-397.41 152.52,-397.41"/>
<polygon fill="#565f89" stroke="#565f89" points="157.42,-367.89 154.97,-360.89 152.52,-367.89 157.42,-367.89"/>
<text xml:space="preserve" text-anchor="middle" x="168.09" y="-379.83" font-family="Cascadia Code" font-size="9.00" fill="#7681b3">bytes</text>
</g>
<!-- init -->
<g id="node3" class="node">
<title>init</title>
<path fill="#0d111a" stroke="#bb9af7" d="M199.31,-226.66C199.31,-226.66 110.62,-226.66 110.62,-226.66 104.62,-226.66 98.62,-220.66 98.62,-214.66 98.62,-214.66 98.62,-199.94 98.62,-199.94 98.62,-193.94 104.62,-187.94 110.62,-187.94 110.62,-187.94 199.31,-187.94 199.31,-187.94 205.31,-187.94 211.31,-193.94 211.31,-199.94 211.31,-199.94 211.31,-214.66 211.31,-214.66 211.31,-220.66 205.31,-226.66 199.31,-226.66"/>
<text xml:space="preserve" text-anchor="start" x="114.47" y="-207.85" font-family="Cascadia Code" font-weight="bold" font-size="11.00" fill="#c0caf5">init</text>
<text xml:space="preserve" text-anchor="start" x="141.47" y="-207.85" font-family="Cascadia Code" font-size="11.00" fill="#c0caf5"> — PID 1</text>
<text xml:space="preserve" text-anchor="start" x="120.84" y="-198.75" font-family="Cascadia Code" font-size="9.00" fill="#7681b3">reaps orphans</text>
</g>
<!-- kernel&#45;&gt;init -->
<g id="edge2" class="edge">
<title>kernel&#45;&gt;init</title>
<path fill="none" stroke="#565f89" stroke-dasharray="5,2" d="M154.97,-293.79C154.97,-275.14 154.97,-252.74 154.97,-235.54"/>
<polygon fill="#565f89" stroke="#565f89" points="152.52,-293.69 154.97,-300.69 157.42,-293.69 152.52,-293.69"/>
<polygon fill="#565f89" stroke="#565f89" points="157.42,-235.59 154.97,-228.59 152.52,-235.59 157.42,-235.59"/>
<text xml:space="preserve" text-anchor="middle" x="189.09" y="-275.86" font-family="Cascadia Code" font-size="9.00" fill="#7681b3">syscalls (r7)</text>
<text xml:space="preserve" text-anchor="middle" x="189.09" y="-264.61" font-family="Cascadia Code" font-size="9.00" fill="#7681b3">scheduling</text>
</g>
<!-- syslogd -->
<g id="node4" class="node">
<title>syslogd</title>
<path fill="#0d111a" stroke="#2a3554" d="M135.43,-139.33C135.43,-139.33 80.5,-139.33 80.5,-139.33 74.5,-139.33 68.5,-133.33 68.5,-127.33 68.5,-127.33 68.5,-115.33 68.5,-115.33 68.5,-109.33 74.5,-103.33 80.5,-103.33 80.5,-103.33 135.43,-103.33 135.43,-103.33 141.43,-103.33 147.43,-109.33 147.43,-115.33 147.43,-115.33 147.43,-127.33 147.43,-127.33 147.43,-133.33 141.43,-139.33 135.43,-139.33"/>
<text xml:space="preserve" text-anchor="middle" x="107.97" y="-117.63" font-family="Cascadia Code" font-size="11.00" fill="#c0caf5">syslogd</text>
</g>
<!-- init&#45;&gt;syslogd -->
<g id="edge3" class="edge">
<title>init&#45;&gt;syslogd</title>
<path fill="none" stroke="#565f89" d="M144.53,-187.66C137.84,-175.71 129.08,-160.05 121.81,-147.06"/>
<polygon fill="#565f89" stroke="#565f89" points="124.02,-146 118.46,-141.09 119.75,-148.39 124.02,-146"/>
<text xml:space="preserve" text-anchor="middle" x="157.9" y="-161.39" font-family="Cascadia Code" font-size="9.00" fill="#7681b3">fork+exec</text>
</g>
<!-- sh -->
<g id="node5" class="node">
<title>sh</title>
<path fill="#0d111a" stroke="#9ece6a" d="M339.31,-140.69C339.31,-140.69 184.63,-140.69 184.63,-140.69 178.63,-140.69 172.63,-134.69 172.63,-128.69 172.63,-128.69 172.63,-113.97 172.63,-113.97 172.63,-107.97 178.63,-101.97 184.63,-101.97 184.63,-101.97 339.31,-101.97 339.31,-101.97 345.31,-101.97 351.31,-107.97 351.31,-113.97 351.31,-113.97 351.31,-128.69 351.31,-128.69 351.31,-134.69 345.31,-140.69 339.31,-140.69"/>
<text xml:space="preserve" text-anchor="start" x="204.59" y="-121.88" font-family="Cascadia Code" font-weight="bold" font-size="11.00" fill="#c0caf5">&#45;sh</text>
<text xml:space="preserve" text-anchor="start" x="224.84" y="-121.88" font-family="Cascadia Code" font-size="11.00" fill="#c0caf5"> — login shell</text>
<text xml:space="preserve" text-anchor="start" x="188.47" y="-112.78" font-family="Cascadia Code" font-size="9.00" fill="#7681b3">session leader · job control</text>
</g>
<!-- init&#45;&gt;sh -->
<g id="edge4" class="edge">
<title>init&#45;&gt;sh</title>
<path fill="none" stroke="#565f89" d="M178.98,-187.46C194.53,-175.25 214.93,-159.24 231.61,-146.15"/>
<polygon fill="#565f89" stroke="#565f89" points="232.85,-148.29 236.84,-142.05 229.82,-144.44 232.85,-148.29"/>
<text xml:space="preserve" text-anchor="middle" x="238.5" y="-161.39" font-family="Cascadia Code" font-size="9.00" fill="#7681b3">fork+exec</text>
</g>
<!-- cmd -->
<g id="node6" class="node">
<title>cmd</title>
<path fill="#0d111a" stroke="#2a3554" d="M338.81,-54.72C338.81,-54.72 163.12,-54.72 163.12,-54.72 157.12,-54.72 151.12,-48.72 151.12,-42.72 151.12,-42.72 151.12,-28 151.12,-28 151.12,-22 157.12,-16 163.12,-16 163.12,-16 338.81,-16 338.81,-16 344.81,-16 350.81,-22 350.81,-28 350.81,-28 350.81,-42.72 350.81,-42.72 350.81,-48.72 344.81,-54.72 338.81,-54.72"/>
<text xml:space="preserve" text-anchor="start" x="223.97" y="-35.91" font-family="Cascadia Code" font-size="11.00" fill="#c0caf5">commands</text>
<text xml:space="preserve" text-anchor="start" x="166.97" y="-26.81" font-family="Cascadia Code" font-size="9.00" fill="#7681b3">ls · vi · cc · htop · connect4 …</text>
</g>
<!-- sh&#45;&gt;cmd -->
<g id="edge5" class="edge">
<title>sh&#45;&gt;cmd</title>
<path fill="none" stroke="#565f89" d="M259.52,-101.69C258.04,-90.39 256.13,-75.77 254.48,-63.23"/>
<polygon fill="#565f89" stroke="#565f89" points="256.93,-63.07 253.6,-56.44 252.08,-63.7 256.93,-63.07"/>
<text xml:space="preserve" text-anchor="middle" x="280.75" y="-75.42" font-family="Cascadia Code" font-size="9.00" fill="#7681b3">fork+exec</text>
</g>
</g>
</svg>
