<?xml version="1.0" encoding="UTF-8" standalone="no"?>
<!DOCTYPE svg PUBLIC "-//W3C//DTD SVG 1.1//EN"
 "http://www.w3.org/Graphics/SVG/1.1/DTD/svg11.dtd">
<!-- Generated by graphviz version 15.1.0 (20260618.0150)
 -->
<!-- Pages: 1 -->
<svg width="228pt" height="388pt"
 viewBox="0.00 0.00 228.00 388.00" xmlns="http://www.w3.org/2000/svg" xmlns:xlink="http://www.w3.org/1999/xlink">
<g id="graph0" class="graph" transform="scale(1 1) rotate(0) translate(4 384.2)">
<g id="clust1" class="cluster">
<title>cluster_real</title>
<polygon fill="none" stroke="#3a4266" stroke-dasharray="5,2" points="24,-212.3 24,-372.2 168,-372.2 168,-212.3 24,-212.3"/>
<text xml:space="preserve" text-anchor="middle" x="96" y="-358.7" font-family="monospace" font-size="10.00" fill="#565f89">thread stack</text>
</g>
<g id="clust2" class="cluster">
<title>cluster_pool</title>
<polygon fill="none" stroke="#3a4266" stroke-dasharray="5,2" points="8,-8 8,-171.8 194,-171.8 194,-8 8,-8"/>
<text xml:space="preserve" text-anchor="middle" x="101" y="-158.3" font-family="monospace" font-size="10.00" fill="#565f89">pool stack</text>
</g>
<!-- main -->
<g id="node1" class="node">
<title>main</title>
<path fill="#0d111a" stroke="#2a3554" d="M111,-343.45C111,-343.45 81,-343.45 81,-343.45 75,-343.45 69,-337.45 69,-331.45 69,-331.45 69,-319.45 69,-319.45 69,-313.45 75,-307.45 81,-307.45 81,-307.45 111,-307.45 111,-307.45 117,-307.45 123,-313.45 123,-319.45 123,-319.45 123,-331.45 123,-331.45 123,-337.45 117,-343.45 111,-343.45"/>
<text xml:space="preserve" text-anchor="middle" x="96" y="-322.32" font-family="monospace" font-size="10.00" fill="#c0caf5">main</text>
</g>
<!-- outer -->
<g id="node2" class="node">
<title>outer</title>
<path fill="#0d111a" stroke="#2a3554" d="M147.96,-260.2C147.96,-260.2 44.04,-260.2 44.04,-260.2 38.04,-260.2 32.04,-254.2 32.04,-248.2 32.04,-248.2 32.04,-232.3 32.04,-232.3 32.04,-226.3 38.04,-220.3 44.04,-220.3 44.04,-220.3 147.96,-220.3 147.96,-220.3 153.96,-220.3 159.96,-226.3 159.96,-232.3 159.96,-232.3 159.96,-248.2 159.96,-248.2 159.96,-254.2 153.96,-260.2 147.96,-260.2"/>
<text xml:space="preserve" text-anchor="middle" x="96" y="-243.5" font-family="monospace" font-size="10.00" fill="#c0caf5">outer (frameless)</text>
<text xml:space="preserve" text-anchor="middle" x="96" y="-230.75" font-family="monospace" font-size="10.00" fill="#c0caf5">has the catch</text>
</g>
<!-- main&#45;&gt;outer -->
<g id="edge1" class="edge">
<title>main&#45;&gt;outer</title>
<path fill="none" stroke="#565f89" stroke-width="1.1" d="M96,-307.21C96,-296.47 96,-282.38 96,-269.99"/>
<polygon fill="#565f89" stroke="#565f89" stroke-width="1.1" points="98.8,-270.17 96,-262.17 93.2,-270.17 98.8,-270.17"/>
<text xml:space="preserve" text-anchor="middle" x="106.5" y="-280.9" font-family="monospace" font-size="9.00" fill="#7f88b3">call</text>
</g>
<!-- disp -->
<g id="node3" class="node">
<title>disp</title>
<path fill="#0d111a" stroke="#2a3554" d="M173.96,-143.05C173.96,-143.05 28.04,-143.05 28.04,-143.05 22.04,-143.05 16.04,-137.05 16.04,-131.05 16.04,-131.05 16.04,-115.15 16.04,-115.15 16.04,-109.15 22.04,-103.15 28.04,-103.15 28.04,-103.15 173.96,-103.15 173.96,-103.15 179.96,-103.15 185.96,-109.15 185.96,-115.15 185.96,-115.15 185.96,-131.05 185.96,-131.05 185.96,-137.05 179.96,-143.05 173.96,-143.05"/>
<text xml:space="preserve" text-anchor="middle" x="101" y="-126.35" font-family="monospace" font-size="10.00" fill="#c0caf5">tvp_dispatch / tvp_ncall</text>
<text xml:space="preserve" text-anchor="middle" x="101" y="-113.6" font-family="monospace" font-size="10.00" fill="#c0caf5">(blob, fake UNWIND_INFO)</text>
</g>
<!-- outer&#45;&gt;disp -->
<g id="edge3" class="edge">
<title>outer&#45;&gt;disp</title>
<path fill="none" stroke="#7aa2f7" stroke-width="1.1" stroke-dasharray="1,5" d="M73.97,-220.01C69.4,-214.77 65.22,-208.75 62.75,-202.3 59.17,-192.96 59.79,-189.35 62.75,-179.8 65.92,-169.59 71.68,-159.6 77.78,-150.95"/>
<polygon fill="#7aa2f7" stroke="#7aa2f7" stroke-width="1.1" points="79.86,-152.84 82.42,-144.76 75.38,-149.48 79.86,-152.84"/>
<text xml:space="preserve" text-anchor="middle" x="75.88" y="-188.12" font-family="monospace" font-size="9.00" fill="#7aa2f7">vcall</text>
</g>
<!-- disp&#45;&gt;outer -->
<g id="edge5" class="edge">
<title>disp&#45;&gt;outer</title>
<path fill="none" stroke="#f7768e" stroke-width="1.6" d="M100.16,-143.44C99.37,-161.56 98.19,-188.91 97.28,-209.75"/>
<polygon fill="#f7768e" stroke="#f7768e" stroke-width="1.6" points="94.49,-209.44 96.94,-217.56 100.09,-209.69 94.49,-209.44"/>
<text xml:space="preserve" text-anchor="middle" x="135.25" y="-193.75" font-family="monospace" font-size="9.00" fill="#f7768e">SET_FPREG</text>
<text xml:space="preserve" text-anchor="middle" x="135.25" y="-182.5" font-family="monospace" font-size="9.00" fill="#f7768e">teleport (RBP)</text>
</g>
<!-- thrower -->
<g id="node4" class="node">
<title>thrower</title>
<path fill="#0d111a" stroke="#2a3554" d="M142.96,-55.9C142.96,-55.9 45.04,-55.9 45.04,-55.9 39.04,-55.9 33.04,-49.9 33.04,-43.9 33.04,-43.9 33.04,-28 33.04,-28 33.04,-22 39.04,-16 45.04,-16 45.04,-16 142.96,-16 142.96,-16 148.96,-16 154.96,-22 154.96,-28 154.96,-28 154.96,-43.9 154.96,-43.9 154.96,-49.9 148.96,-55.9 142.96,-55.9"/>
<text xml:space="preserve" text-anchor="middle" x="94" y="-39.2" font-family="monospace" font-size="10.00" fill="#c0caf5">thrower (native)</text>
<text xml:space="preserve" text-anchor="middle" x="94" y="-26.45" font-family="monospace" font-size="10.00" fill="#c0caf5">throw 7</text>
</g>
<!-- disp&#45;&gt;thrower -->
<g id="edge2" class="edge">
<title>disp:sw&#45;&gt;thrower:nw</title>
<path fill="none" stroke="#565f89" stroke-width="1.1" d="M16.04,-103.15C2.48,-89.59 13.13,-76.1 26.4,-62.55"/>
<polygon fill="#565f89" stroke="#565f89" stroke-width="1.1" points="28.2,-64.72 31.86,-57.08 24.23,-60.77 28.2,-64.72"/>
<text xml:space="preserve" text-anchor="middle" x="28.82" y="-76.6" font-family="monospace" font-size="9.00" fill="#7f88b3">ncall</text>
</g>
<!-- thrower&#45;&gt;disp -->
<g id="edge4" class="edge">
<title>thrower:ne&#45;&gt;disp:se</title>
<path fill="none" stroke="#f7768e" stroke-width="1.1" d="M154.96,-55.9C169.94,-70.88 194.36,-81.58 190.95,-95.22"/>
<polygon fill="#f7768e" stroke="#f7768e" stroke-width="1.1" points="188.74,-93.48 186.85,-101.74 193.48,-96.46 188.74,-93.48"/>
<text xml:space="preserve" text-anchor="middle" x="204.24" y="-76.6" font-family="monospace" font-size="9.00" fill="#f7768e">unwind</text>
</g>
</g>
</svg>
